<mxfile host="app.diagrams.net" modified="2023-09-20T15:34:15.988Z" agent="Mozilla/5.0 (Windows NT 10.0; Win64; x64) AppleWebKit/537.36 (KHTML, like Gecko) Chrome/114.0.0.0 Safari/537.36" version="21.7.5" etag="aKTmKPUeEhPkz82VYAb9" type="github">
  <diagram name="PÃ¡gina-1" id="hQxctXKMkKpaMMS7wXTc">
    <mxGraphModel>
      <root>
        <mxCell id="0" />
        <mxCell id="1" parent="0" />
      </root>
    </mxGraphModel>
  </diagram>
</mxfile>
